HIERARCHY
ROOT Hips
{
	OFFSET 0.000000 0.000000 0.000000 
	CHANNELS 6 Xposition Yposition Zposition Yrotation Zrotation Xrotation 
	JOINT Lumbar
	{
		OFFSET 0.000000 0.000000 0.000000 
		CHANNELS 3 Zrotation Xrotation Yrotation
		JOINT Neck
		{
			OFFSET 0.000000 0.445665 0.000000 
			CHANNELS 3 Zrotation Xrotation Yrotation
			End Site
			{
				OFFSET 0.000000 0.227535 0.000000 
			}
		}
		JOINT RightShoulder
		{
			OFFSET 0.019635 0.377685 0.194865 
			CHANNELS 3 Zrotation Xrotation Yrotation
			JOINT RightElbow
			{
				OFFSET 0.000000 -0.243375 0.000000 
				CHANNELS 2 Zrotation Yrotation
				JOINT RightWrist
				{
					OFFSET 0.000000 -0.264825 0.000000 
					CHANNELS 2 Zrotation Xrotation
					End Site
					{
						OFFSET 0.006600 -0.176220 0.000990 
					}
				}
			}
		}
		JOINT LeftShoulder
		{
			OFFSET 0.019635 0.377685 -0.194865 
			CHANNELS 3 Zrotation Xrotation Yrotation
			JOINT LeftElbow
			{
				OFFSET 0.000000 -0.243375 0.000000 
				CHANNELS 2 Zrotation Yrotation
				JOINT LeftWrist
				{
					OFFSET 0.000000 -0.264825 0.000000 
					CHANNELS 2 Zrotation Xrotation
					End Site
					{
						OFFSET 0.006600 -0.176220 -0.000990 
					}
				}
			}
		}
	}
	JOINT RightHip
	{
		OFFSET 0.052140 -0.069960 0.075570 
		CHANNELS 3 Zrotation Xrotation Yrotation
		JOINT RightKnee
		{
			OFFSET 0.000000 -0.402270 0.000000 
			CHANNELS 1 Zrotation
			JOINT RightAnkle
			{
				OFFSET 0.000000 -0.404085 0.000000 
				CHANNELS 3 Zrotation Xrotation Yrotation
				End Site
				{
					OFFSET 0.204105 -0.089430 0.008415 
				}
			}
		}
	}
	JOINT LeftHip
	{
		OFFSET 0.052140 -0.069960 -0.075570 
		CHANNELS 3 Zrotation Xrotation Yrotation
		JOINT LeftKnee
		{
			OFFSET 0.000000 -0.402270 0.000000 
			CHANNELS 1 Zrotation
			JOINT LeftAnkle
			{
				OFFSET 0.000000 -0.404085 0.000000 
				CHANNELS 3 Zrotation Xrotation Yrotation
				End Site
				{
					OFFSET 0.204105 -0.089430 -0.008415 
				}
			}
		}
	}
}
MOTION
Frames: 14
Frame Time: 0.02
-0.00035 -0.00014 -0.00011 -175.17495 -42.32771 -1.31381 47.88996 1.69428 -8.25732 5.98826 1.89903 -0.8512 -21.98537 -8.90524 1.19629 35.21319 89.48208 4.80513 1.37121 -32.18085 11.13567 -7.22683 44.66036 -102.38124 12.58375 -2.27838 46.88978 -0.96188 -10.34337 -19.25165 -6.25089 -2.34689 -3.33699 50.6589 3.64331 7.97914 -25.08087 -6.46953 2.23711 3.32256
0.00014 -0.00011 -0.00015 -175.07273 -42.40299 -1.3088 47.82343 1.72526 -8.0581 6.24221 1.94659 -0.85324 -21.67022 -9.04348 1.3596 35.16088 89.62583 4.86292 1.36449 -31.42025 11.58305 -7.67913 45.10133 -102.27126 12.53085 -2.25974 47.00054 -0.96282 -10.35888 -19.25839 -6.25262 -2.34457 -3.33819 50.78165 3.6833 8.1354 -25.09227 -6.47262 2.21812 3.31157
0.00063 -8e-05 -0.00019 -174.97086 -42.47812 -1.30383 47.75699 1.75617 -7.85948 6.49575 1.99404 -0.85529 -21.35519 -9.18109 1.52194 35.10858 89.77492 4.92205 1.35884 -30.66042 12.02903 -8.13031 45.54084 -102.16196 12.47823 -2.2412 47.1111 -0.96375 -10.37452 -19.26513 -6.25436 -2.34224 -3.33938 50.90417 3.7232 8.29097 -25.10369 -6.4757 2.19918 3.30061
0.00111 -5e-05 -0.00023 -174.86895 -42.55318 -1.29884 47.69065 1.78706 -7.66086 6.74899 2.04146 -0.85732 -21.04087 -9.31887 1.68465 35.0564 89.91956 4.98001 1.35237 -29.90192 12.47504 -8.58128 45.98044 -102.05213 12.42543 -2.22259 47.22156 -0.96469 -10.39001 -19.27185 -6.25609 -2.33993 -3.34058 51.02657 3.76306 8.44671 -25.11507 -6.47879 2.18024 3.28966
0.0016 -2e-05 -0.00027 -174.76669 -42.62835 -1.29381 47.62423 1.818 -7.46169 7.0025 2.08897 -0.85936 -20.72674 -9.45736 1.84858 35.00427 90.05561 5.03579 1.34424 -29.14319 12.92242 -9.03324 46.42151 -101.94216 12.37254 -2.20395 47.33213 -0.96565 -10.40531 -19.27856 -6.25782 -2.33761 -3.34179 51.14911 3.80301 8.60325 -25.1264 -6.48187 2.16125 3.27866
0.00208 2e-05 -0.00031 -174.66569 -42.70339 -1.28893 47.55775 1.84881 -7.26424 7.25607 2.13626 -0.86141 -20.40986 -9.59312 2.00758 34.95161 90.23141 5.10178 1.34369 -28.38111 13.36541 -9.48273 46.85769 -101.83465 12.32065 -2.18569 47.44265 -0.96651 -10.42166 -19.28534 -6.25957 -2.33525 -3.34294 51.27157 3.84282 8.75678 -25.13799 -6.48497 2.14242 3.26779
0.00257 5e-05 -0.00034 -174.5622 -42.77864 -1.28378 47.49151 1.87988 -7.06351 7.50925 2.18397 -0.86343 -20.09885 -9.73418 2.17613 34.90009 90.33003 5.14793 1.32842 -27.62669 13.81682 -9.93678 47.30327 -101.72055 12.26618 -2.16643 47.55322 -0.96758 -10.43586 -19.29198 -6.26128 -2.333 -3.34421 51.39413 3.88284 8.91611 -25.14908 -6.48803 2.12328 3.25668
0.00305 8e-05 -0.00038 -174.46112 -42.85361 -1.27886 47.42496 1.91069 -6.86585 7.76278 2.23125 -0.8655 -19.78245 -9.87044 2.33623 34.84748 90.49436 5.21096 1.32573 -26.86506 14.2603 -10.38645 47.74011 -101.61572 12.21523 -2.14856 47.66364 -0.96844 -10.4521 -19.29875 -6.26303 -2.33063 -3.34536 51.51646 3.92271 9.07024 -25.16059 -6.49113 2.10443 3.2458
0.00354 0.00011 -0.00043 -174.3625 -42.92862 -1.27426 47.35836 1.94128 -6.67165 8.01696 2.27819 -0.86753 -19.45908 -10.00053 2.4846 34.79363 90.76181 5.30052 1.34256 -26.09461 14.69495 -10.83169 48.16673 -101.50955 12.16403 -2.13054 47.77435 -0.96911 -10.47064 -19.30569 -6.26481 -2.32819 -3.34642 51.63915 3.96224 9.21745 -25.17276 -6.49426 2.0859 3.23518
0.00403 0.00014 -0.00042 -174.24824 -43.00455 -1.26794 47.29305 1.9734 -6.45666 8.26807 2.32765 -0.8695 -19.17466 -10.16518 2.69625 34.74719 90.50458 5.25518 1.25956 -25.37482 15.18303 -11.30521 48.65355 -101.373 12.1006 -2.10782 47.88482 -0.97107 -10.47537 -19.31166 -6.26636 -2.32637 -3.34816 51.76168 4.00323 9.40282 -25.18157 -6.49717 2.06543 3.22298
0.0045 0.00018 -0.00055 -174.16793 -43.0778 -1.2652 47.22436 2.00213 -6.28613 8.52519 2.37144 -0.87178 -18.80891 -10.25752 2.77711 34.68495 91.30983 5.48295 1.37909 -24.54843 15.55666 -11.71722 49.01246 -101.32489 12.07168 -2.09857 47.99485 -0.97016 -10.50958 -19.31968 -6.26841 -2.32308 -3.34837 51.8833 4.04145 9.50871 -25.1972 -6.50057 2.04915 3.21415
0.00489 0.00027 -0.001 -174.1741 -43.14973 -1.27278 47.15172 2.02282 -6.23416 8.80265 2.40206 -0.87343 -18.21126 -10.14421 2.47138 34.58114 95.44516 6.56758 2.13002 -23.42366 15.62759 -11.97477 49.0243 -101.30693 12.06149 -2.09515 48.1115 -0.96248 -10.62271 -19.33343 -6.2718 -2.31705 -3.34493 52.01261 4.06955 9.38578 -25.23412 -6.50521 2.04366 3.21447
0.00525 0.00039 -0.0016 -174.21564 -43.21779 -1.28381 47.07475 2.03986 -6.22762 9.08522 2.42629 -0.87569 -17.53428 -9.95938 2.03831 34.46169 100.5832 7.90996 3.07254 -22.19315 15.58171 -12.16828 48.90705 -101.40657 12.09618 -2.10948 48.22618 -0.95172 -10.76583 -19.34923 -6.27568 -2.30929 -3.33984 52.13901 4.0953 9.18499 -25.27742 -6.51037 2.04252 3.2182
0.00561 0.0005 -0.00215 -174.24532 -43.28375 -1.29303 46.9962 2.05775 -6.20239 9.36323 2.45217 -0.87861 -16.89836 -9.81229 1.68299 34.34754 104.97562 9.05989 3.8752 -21.01451 15.58159 -12.38128 48.84622 -101.60473 12.16483 -2.13798 48.33679 -0.94162 -10.89647 -19.36399 -6.27934 -2.30145 -3.33515 52.26023 4.12377 9.02692 -25.31614 -6.51537 2.03983 3.22043
